<svg xmlns="http://www.w3.org/2000/svg" xmlns:xlink="http://www.w3.org/1999/xlink" width="800" zoomAndPan="magnify" viewBox="0 0 600 599.999999" height="800" preserveAspectRatio="xMidYMid meet" version="1.0"><path stroke-linecap="butt" transform="matrix(0.329725, 0, 0, 0.329725, -40.095068, -29.727397)" fill-opacity="1" fill="#066475" fill-rule="nonzero" stroke-linejoin="miter" d="M 545.179641 982.901452 L 545.179641 1160.168243 L 1022.448232 739.717905 L 1504.266075 1160.168243 L 1504.266075 980.626827 L 1024.734705 587.436456 Z M 545.179641 982.901452 " stroke="#ffffff" stroke-width="1" stroke-opacity="1" stroke-miterlimit="10"/><path fill="#066475" d="M 298.441406 228.414062 L 177.792969 337.074219 L 177.792969 432.246094 C 177.792969 432.246094 192.03125 454.726562 209.265625 452.476562 C 226.5 450.230469 256.476562 452.636719 256.476562 452.636719 L 256.476562 361.804688 C 256.476562 361.804688 251.230469 352.8125 275.210938 352.8125 C 299.191406 352.8125 299.191406 352.8125 299.191406 352.8125 Z M 298.441406 228.414062 " fill-opacity="1" fill-rule="nonzero"/><path fill="#066475" d="M 298.621094 228.414062 L 419.269531 337.074219 L 419.269531 432.246094 C 419.269531 432.246094 405.03125 454.726562 387.796875 452.476562 C 370.5625 450.230469 340.589844 452.636719 340.589844 452.636719 L 340.589844 361.804688 C 340.589844 361.804688 345.835938 352.8125 321.855469 352.8125 C 297.871094 352.8125 297.871094 352.8125 297.871094 352.8125 Z M 298.621094 228.414062 " fill-opacity="1" fill-rule="nonzero"/><path fill="#066475" d="M 398.984375 246.941406 L 398.984375 137.738281 C 398.984375 137.738281 395.953125 105.515625 338.25 108.511719 L 238.492188 108.316406 C 238.492188 108.316406 204.859375 108.511719 198.117188 145.230469 L 198.117188 209.675781 L 227.34375 208.925781 L 226.597656 149.726562 C 226.597656 149.726562 228.097656 135.488281 252.824219 136.984375 L 353.992188 136.234375 C 353.992188 136.234375 371.226562 132.492188 370.476562 155.71875 C 369.730469 178.949219 370.074219 223.230469 370.074219 223.230469 " fill-opacity="1" fill-rule="nonzero"/><path fill="#066475" d="M 311.640625 380.140625 C 311.640625 387.371094 305.78125 393.230469 298.550781 393.230469 C 295.460938 393.230469 292.621094 392.160156 290.378906 390.367188 C 287.378906 387.96875 285.457031 384.277344 285.457031 380.140625 C 285.457031 372.910156 291.320312 367.050781 298.546875 367.050781 C 305.777344 367.050781 311.640625 372.910156 311.640625 380.140625 Z M 311.640625 380.140625 " fill-opacity="1" fill-rule="nonzero"/><path fill="#066475" d="M 313.269531 451.542969 L 305.652344 389.273438 L 292.992188 392.140625 L 294.179688 451.542969 " fill-opacity="1" fill-rule="nonzero"/><path fill="#066475" d="M 282.855469 451.542969 L 290.472656 389.273438 L 303.132812 392.140625 L 301.945312 451.542969 " fill-opacity="1" fill-rule="nonzero"/></svg>